<svg width="32" height="32" viewBox="0 0 32 32" fill="none" xmlns="http://www.w3.org/2000/svg">
<rect width="32" height="32" rx="5" fill="#9B59B6"/>
<path d="M16.5449 25.5801C14.8574 25.5801 13.3867 25.3574 12.1328 24.9121C10.8789 24.4551 9.73047 23.7285 8.6875 22.7324L10.375 19.7793L10.5332 19.498L10.8848 19.709C10.9082 19.7676 10.9375 19.873 10.9727 20.0254C11.0195 20.1777 11.0957 20.3301 11.2012 20.4824C11.3184 20.623 11.4707 20.7637 11.6582 20.9043C12.3145 21.3965 13.0352 21.7598 13.8203 21.9941C14.6172 22.2168 15.5371 22.3281 16.5801 22.3281C18.502 22.3281 19.4629 21.6953 19.4629 20.4297C19.4629 20.043 19.3457 19.709 19.1113 19.4277C18.877 19.1465 18.502 18.8887 17.9863 18.6543C17.4707 18.4199 16.7617 18.1738 15.8594 17.916C13.9258 17.4121 12.4199 16.7793 11.3418 16.0176C10.2754 15.2441 9.74219 14.1836 9.74219 12.8359C9.74219 11.8633 10 11.002 10.5156 10.252C11.043 9.49023 11.793 8.89844 12.7656 8.47656C13.75 8.04297 14.8984 7.82617 16.2109 7.82617C17.5234 7.82617 18.7188 8.04297 19.7969 8.47656C20.8867 8.89844 21.8887 9.54883 22.8027 10.4277L20.7637 13.2578L20.5879 13.5215L20.2539 13.293C20.2422 13.2344 20.2188 13.1289 20.1836 12.9766C20.1602 12.8125 20.0957 12.6543 19.9902 12.502C19.8848 12.3496 19.7383 12.209 19.5508 12.0801C18.6016 11.4004 17.5117 11.0605 16.2812 11.0605C15.5664 11.0605 14.9688 11.1836 14.4883 11.4297C14.0078 11.6758 13.7676 12.0098 13.7676 12.4316C13.7676 12.8184 13.8965 13.1523 14.1543 13.4336C14.4238 13.7031 14.8223 13.9492 15.3496 14.1719C15.8887 14.3945 16.6562 14.6582 17.6523 14.9629C19.0352 15.3848 20.1191 15.8125 20.9043 16.2461C21.6895 16.668 22.2637 17.1777 22.627 17.7754C22.9902 18.373 23.1719 19.123 23.1719 20.0254C23.1719 20.998 22.8789 21.9121 22.293 22.7676C21.7188 23.6113 20.9277 24.291 19.9199 24.8066C18.9121 25.3223 17.7871 25.5801 16.5449 25.5801Z" fill="white"/>
</svg>
